<mxfile host="app.diagrams.net" agent="Mozilla/5.0 (Windows NT 10.0; Win64; x64) AppleWebKit/537.36 (KHTML, like Gecko) Chrome/138.0.0.0 Safari/537.36 Edg/138.0.0.0" version="28.0.7">
  <diagram name="PÃ¡gina-1" id="DZTbEUajjZjeqsAAwO0T">
    <mxGraphModel dx="1015" dy="1138" grid="1" gridSize="10" guides="1" tooltips="1" connect="1" arrows="1" fold="1" page="1" pageScale="1" pageWidth="827" pageHeight="1169" math="0" shadow="0">
      <root>
        <mxCell id="0" />
        <mxCell id="1" parent="0" />
        <mxCell id="7Mjhgnixy8Q8bsNqLEjv-1" value="Usuario" style="shape=umlActor;verticalLabelPosition=bottom;verticalAlign=top;html=1;" parent="1" vertex="1">
          <mxGeometry x="120" y="220" width="30" height="60" as="geometry" />
        </mxCell>
        <mxCell id="7Mjhgnixy8Q8bsNqLEjv-2" value="crear sala" style="ellipse;whiteSpace=wrap;html=1;" parent="1" vertex="1">
          <mxGeometry x="250" y="240" width="140" height="70" as="geometry" />
        </mxCell>
        <mxCell id="7Mjhgnixy8Q8bsNqLEjv-3" value="crear sala" style="shape=umlFrame;whiteSpace=wrap;html=1;pointerEvents=0;" parent="1" vertex="1">
          <mxGeometry x="230" y="150" width="480" height="340" as="geometry" />
        </mxCell>
        <mxCell id="7Mjhgnixy8Q8bsNqLEjv-5" value="" style="endArrow=none;html=1;rounded=0;entryX=0;entryY=0.5;entryDx=0;entryDy=0;" parent="1" source="7Mjhgnixy8Q8bsNqLEjv-1" target="7Mjhgnixy8Q8bsNqLEjv-2" edge="1">
          <mxGeometry width="50" height="50" relative="1" as="geometry">
            <mxPoint x="120" y="580" as="sourcePoint" />
            <mxPoint x="170" y="530" as="targetPoint" />
          </mxGeometry>
        </mxCell>
        <mxCell id="7Mjhgnixy8Q8bsNqLEjv-6" value="Definir la cantidad de jugadores (2 - 7)" style="ellipse;whiteSpace=wrap;html=1;" parent="1" vertex="1">
          <mxGeometry x="500" y="180" width="140" height="70" as="geometry" />
        </mxCell>
        <mxCell id="7Mjhgnixy8Q8bsNqLEjv-7" value="include" style="endArrow=block;endSize=16;endFill=0;html=1;rounded=0;exitX=1;exitY=0;exitDx=0;exitDy=0;entryX=0;entryY=0.5;entryDx=0;entryDy=0;" parent="1" source="7Mjhgnixy8Q8bsNqLEjv-2" target="7Mjhgnixy8Q8bsNqLEjv-6" edge="1">
          <mxGeometry width="160" relative="1" as="geometry">
            <mxPoint x="370" y="440" as="sourcePoint" />
            <mxPoint x="530" y="440" as="targetPoint" />
          </mxGeometry>
        </mxCell>
        <mxCell id="7Mjhgnixy8Q8bsNqLEjv-8" value="Definir jugadores" style="ellipse;whiteSpace=wrap;html=1;" parent="1" vertex="1">
          <mxGeometry x="510" y="270" width="140" height="70" as="geometry" />
        </mxCell>
        <mxCell id="7Mjhgnixy8Q8bsNqLEjv-9" value="include" style="endArrow=block;endSize=16;endFill=0;html=1;rounded=0;exitX=1;exitY=1;exitDx=0;exitDy=0;entryX=0;entryY=0.5;entryDx=0;entryDy=0;" parent="1" source="7Mjhgnixy8Q8bsNqLEjv-2" target="7Mjhgnixy8Q8bsNqLEjv-8" edge="1">
          <mxGeometry width="160" relative="1" as="geometry">
            <mxPoint x="730" y="250" as="sourcePoint" />
            <mxPoint x="840" y="250" as="targetPoint" />
          </mxGeometry>
        </mxCell>
        <mxCell id="7Mjhgnixy8Q8bsNqLEjv-10" value="Iniciar Juego" style="ellipse;whiteSpace=wrap;html=1;" parent="1" vertex="1">
          <mxGeometry x="380" y="390" width="140" height="70" as="geometry" />
        </mxCell>
        <mxCell id="7Mjhgnixy8Q8bsNqLEjv-11" value="extend" style="endArrow=block;endSize=16;endFill=0;html=1;rounded=0;exitX=0;exitY=0;exitDx=0;exitDy=0;entryX=0.5;entryY=1;entryDx=0;entryDy=0;" parent="1" source="7Mjhgnixy8Q8bsNqLEjv-10" target="7Mjhgnixy8Q8bsNqLEjv-2" edge="1">
          <mxGeometry width="160" relative="1" as="geometry">
            <mxPoint x="413" y="430" as="sourcePoint" />
            <mxPoint x="413" y="520" as="targetPoint" />
          </mxGeometry>
        </mxCell>
      </root>
    </mxGraphModel>
  </diagram>
</mxfile>
